{
    "asset": {
        "version": "2.0",
        "generator": "Open Asset Import Library (assimp v3.1.243586452)"
    },
    "accessors": [
        {
            "bufferView": 0,
            "byteOffset": 0,
            "componentType": 5126,
            "count": 638,
            "type": "VEC3",
            "max": [
                -1540.441650390625,
                3077.478515625,
                -492.78759765625
            ],
            "min": [
                -2334.6279296875,
                253.133056640625,
                -1065.7576904296876
            ]
        },
        {
            "bufferView": 1,
            "byteOffset": 0,
            "componentType": 5126,
            "count": 638,
            "type": "VEC3",
            "max": [
                1.0,
                1.0,
                1.0
            ],
            "min": [
                -1.0,
                -1.0,
                -1.0
            ]
        },
        {
            "bufferView": 2,
            "byteOffset": 0,
            "componentType": 5126,
            "count": 638,
            "type": "VEC2",
            "max": [
                0.9783722758293152,
                0.989209771156311
            ],
            "min": [
                0.005439412780106068,
                0.029521822929382325
            ]
        },
        {
            "bufferView": 3,
            "byteOffset": 0,
            "componentType": 5123,
            "count": 1332,
            "type": "SCALAR",
            "max": [
                637.0
            ],
            "min": [
                0.0
            ]
        }
    ],
    "buffers": [
        {
            "byteLength": 23080,
            "uri": "building2.bin"
        }
    ],
    "bufferViews": [
        {
            "buffer": 0,
            "byteOffset": 0,
            "byteLength": 7656,
            "target": 34962
        },
        {
            "buffer": 0,
            "byteOffset": 7656,
            "byteLength": 7656,
            "target": 34962
        },
        {
            "buffer": 0,
            "byteOffset": 15312,
            "byteLength": 5104,
            "target": 34962
        },
        {
            "buffer": 0,
            "byteOffset": 20416,
            "byteLength": 2664,
            "target": 34963
        }
    ],
    "materials": [
        {
            "name": "lambert1",
            "pbrMetallicRoughness": {
                "baseColorFactor": [
                    0.5,
                    0.5,
                    0.5,
                    1.0
                ],
                "metallicFactor": 0.0
            }
        }
    ],
    "meshes": [
        {
            "name": "polySurface119",
            "primitives": [
                {
                    "mode": 4,
                    "material": 0,
                    "indices": 3,
                    "attributes": {
                        "POSITION": 0,
                        "NORMAL": 1,
                        "TEXCOORD_0": 2
                    }
                }
            ]
        }
    ],
    "nodes": [
        {
            "name": "RootNode",
            "children": [
                1
            ]
        },
        {
            "name": "polySurface119",
            "matrix": [
                0.009999999776482582,
                0.0,
                0.0,
                0.0,
                0.0,
                0.009999999776482582,
                0.0,
                0.0,
                0.0,
                0.0,
                0.009999999776482582,
                0.0,
                19.375347137451173,
                -2.660400629043579,
                7.792727470397949,
                1.0
            ],
            "mesh": 0
        }
    ],
    "scenes": [
        {
            "nodes": [
                0
            ]
        }
    ],
    "scene": 0
}